<?xml version="1.0" encoding="UTF-8" standalone="no"?>
<!-- Created with Inkscape (http://www.inkscape.org/) -->

<svg
   xmlns:dc="http://purl.org/dc/elements/1.1/"
   xmlns:cc="http://creativecommons.org/ns#"
   xmlns:rdf="http://www.w3.org/1999/02/22-rdf-syntax-ns#"
   xmlns:svg="http://www.w3.org/2000/svg"
   xmlns="http://www.w3.org/2000/svg"
   xmlns:sodipodi="http://sodipodi.sourceforge.net/DTD/sodipodi-0.dtd"
   xmlns:inkscape="http://www.inkscape.org/namespaces/inkscape"
   width="159.99983mm"
   height="90.000008mm"
   viewBox="0 0 159.99983 90.000008"
   version="1.1"
   id="svg2202"
   sodipodi:docname="flower-frame.svg"
   inkscape:version="0.92.4 5da689c313, 2019-01-14"
   perserveAspectRatio="none">
  <defs
     id="defs2196" />
  <sodipodi:namedview
     id="base"
     pagecolor="#ffffff"
     bordercolor="#666666"
     borderopacity="1.0"
     inkscape:pageopacity="0.0"
     inkscape:pageshadow="2"
     inkscape:zoom="1.4"
     inkscape:cx="296.21884"
     inkscape:cy="221.33909"
     inkscape:document-units="mm"
     inkscape:current-layer="svg2202"
     showgrid="false"
     fit-margin-top="0"
     fit-margin-left="0"
     fit-margin-right="0"
     fit-margin-bottom="0"
     inkscape:window-width="1920"
     inkscape:window-height="1056"
     inkscape:window-x="1920"
     inkscape:window-y="0"
     inkscape:window-maximized="0" />
  <metadata
     id="metadata2199">
    <rdf:RDF>
      <cc:Work
         rdf:about="">
        <dc:format>image/svg+xml</dc:format>
        <dc:type
           rdf:resource="http://purl.org/dc/dcmitype/StillImage" />
        <dc:title></dc:title>
      </cc:Work>
    </rdf:RDF>
  </metadata>
  <g
     inkscape:label="Layer 1"
     inkscape:groupmode="layer"
     id="layer1"
     transform="translate(313.37264,-21.434606)">
    <path
       style="fill:#ffc857;fill-opacity:1;stroke-width:0.01405285"
       inkscape:connector-curvature="0"
       d="m -157.27883,21.556234 c -1.28671,0.05894 -2.80127,0.176807 -3.35081,0.279943 -0.54952,0.08841 -2.21153,0.147341 -3.68587,0.132606 -1.50117,-0.01474 -3.33741,0.0442 -4.18181,0.162075 -1.17949,0.147341 -2.03729,0.147341 -4.08798,0.01474 -1.42074,-0.103141 -4.9994,-0.162076 -7.94811,-0.162076 -11.05765,0.02949 -21.17706,-0.05894 -21.36471,-0.191541 -0.10723,-0.07367 -4.31584,-0.162076 -9.81115,-0.191542 -8.18937,-0.0442 -9.73074,-0.01474 -10.45451,0.176807 -0.67016,0.162075 -1.75582,0.221011 -4.87877,0.206276 -2.21153,0 -3.90033,-0.05894 -3.7529,-0.117871 0.52273,-0.235746 -1.83624,-0.353617 -4.69112,-0.235746 -1.54137,0.05894 -3.17656,0.10314 -3.61887,0.10314 -7.72025,-0.05894 -31.35011,0.0442 -34.98239,0.162072 -1.76922,0.05894 -2.66723,0.0442 -2.41257,-0.0442 0.25466,-0.0884 -0.42891,-0.103136 -1.94347,-0.05893 -1.99708,0.07367 -14.93118,0.14734 -30.76037,0.191541 l -4.1684,0.01474 0.0402,11.595645 c 0.0134,6.394549 0.067,16.708337 0.12063,22.955546 0.0536,6.232475 0.0804,13.231119 0.0402,15.544354 -0.067,4.876947 -0.067,5.245299 -0.0134,22.911343 l 0.0268,13.422664 65.95721,-0.0442 c 59.6443,-0.0295 65.9438,-0.0147 65.87679,0.19154 -0.22786,0.67777 -0.22786,0.97245 0.0536,1.59127 0.49591,1.13452 1.52797,1.56181 2.61363,1.06085 0.71037,-0.32415 1.63519,-1.37026 2.02388,-2.26903 0.33508,-0.76617 0.36188,-0.81037 0.53613,-0.54516 0.10722,0.14734 0.18764,0.35361 0.18764,0.44202 0,0.0884 0.17425,0.35362 0.40209,0.58936 0.85782,0.9135 2.70746,0.58936 3.83333,-0.67777 l 0.50932,-0.57462 h 1.55477 c 1.36713,0 2.84149,-0.11787 4.50348,-0.36835 l 0.54954,-0.0884 0.0804,0.60409 c 0.0938,0.79564 0.54952,1.53234 1.2867,2.06276 0.67016,0.50095 1.12587,0.54516 2.10431,0.22101 1.20628,-0.39782 2.25174,-1.57654 2.60022,-2.9468 0.20105,-0.79563 0.18764,-0.76616 1.08566,-0.95771 1.16608,-0.25047 1.74242,-0.44201 1.662,-0.58936 -0.0402,-0.0737 0.12063,-0.20627 0.36189,-0.27994 0.33507,-0.10314 0.18764,-0.11787 -0.62996,-0.0737 -0.58973,0.0442 -1.21969,0.10314 -1.40734,0.13261 -0.18764,0.0294 -0.41549,0.0147 -0.49591,-0.0442 -0.067,-0.0589 -0.17424,-0.66303 -0.22786,-1.35552 -0.34848,-4.538071 -2.9487,-8.354171 -6.60778,-9.665495 -1.13927,-0.412552 -1.2599,-0.427287 -3.79311,-0.412552 -2.9219,0 -3.86012,0.162071 -8.3636,1.458664 l -2.27855,0.648294 0.80419,-0.913506 c 1.11247,-1.252388 1.58158,-1.959622 2.06409,-3.064669 0.71038,-1.664941 0.49593,-3.300412 -0.53612,-4.051846 -0.37529,-0.279947 -0.53613,-0.545159 -0.72377,-1.163983 -0.3887,-1.384994 -1.36713,-2.28377 -2.45279,-2.28377 -1.51457,0 -2.49299,2.092228 -1.48776,3.197276 0.4155,0.456753 1.31352,0.618828 1.56818,0.279946 0.21444,-0.279946 0.0804,-0.530423 -0.28147,-0.530423 -0.18765,0 -0.24126,-0.07367 -0.18765,-0.235746 0.0402,-0.132606 0.0804,-0.265212 0.0804,-0.294677 0,-0.176811 0.52273,-0.02949 0.71037,0.206276 0.45571,0.545154 0.20105,3.992906 -0.40209,5.643112 l -0.20105,0.559893 -0.33508,-0.442018 c -0.46911,-0.604094 -0.99184,-0.869305 -1.70221,-0.869305 -1.11246,0 -1.86304,0.530423 -2.0909,1.48813 -0.32168,1.281858 0.91142,2.44584 2.0775,1.959622 0.20105,-0.08841 0.18765,-0.117871 -0.0134,-0.368352 -0.18765,-0.221007 -0.18765,-0.309412 -0.0536,-0.500954 0.0938,-0.117871 0.26807,-0.221011 0.40209,-0.221011 0.24126,0 0.67017,0.442022 0.67017,0.692499 0,0.294678 -1.17948,1.355524 -2.02388,1.827012 -0.75058,0.412553 -3.28379,1.134518 -3.41782,0.972446 -0.0402,-0.02949 0.18764,-0.235746 0.48252,-0.456757 1.11246,-0.810366 1.42073,-2.106959 0.65675,-2.799454 -0.69696,-0.648298 -1.58158,-0.471488 -1.84964,0.353613 -0.17424,0.559893 -0.067,0.869306 0.34848,1.046116 0.38869,0.162072 0.58974,0.05894 0.48252,-0.235746 -0.0402,-0.147341 0.0134,-0.221011 0.14743,-0.221011 0.54953,0 0.28146,1.016646 -0.4155,1.62074 -0.71037,0.604094 -1.20629,0.7367 -2.84148,0.7367 -0.85781,0 -2.45279,0.103136 -3.56525,0.221011 -5.06641,0.545154 -14.08679,1.031377 -16.41894,0.898771 -10.8566,-0.648294 -37.5558,-1.606005 -55.28825,-2.003823 -3.68588,-0.07367 -8.41722,-0.176806 -10.52152,-0.221007 -4.32924,-0.10314 -24.46087,-0.368352 -27.57041,-0.368352 h -2.05069 v -9.105603 c 0,-11.595645 -0.22785,-38.941918 -0.4021,-48.784218 -0.0804,-4.169717 -0.0938,-7.632204 -0.0402,-7.69114 0.067,-0.05894 5.44171,-0.176807 11.96907,-0.265211 6.52737,-0.0884 12.85368,-0.191542 14.07337,-0.235744 1.2197,-0.0442 3.56526,-0.103138 5.22726,-0.14734 11.20508,-0.29468 33.57504,-1.090315 41.48294,-1.473398 4.89217,-0.250478 5.65616,-0.309414 10.95042,-0.869305 3.98076,-0.427286 10.76278,-1.031379 14.68992,-1.296591 1.48776,-0.0884 2.64044,-0.22101 2.54661,-0.279945 -0.0938,-0.05894 -1.40734,-0.206276 -2.92189,-0.338882 -13.04133,-1.134517 -29.94278,-0.987177 -49.25681,0.427286 -1.62179,0.117871 -3.3106,0.250477 -3.7529,0.294679 -0.53613,0.0442 -0.71037,0.02947 -0.52273,-0.05894 0.45571,-0.22101 4.10139,-0.869305 7.0903,-1.267123 l 2.81468,-0.383083 27.5436,0.02947 c 23.57625,0.01473 46.57616,0.162073 41.751,0.250477 -3.91373,0.07367 -21.12345,1.016645 -21.24408,1.163985 -0.0804,0.0884 1.28671,0.02947 8.98015,-0.397818 12.80005,-0.707249 16.05703,-0.795653 26.51153,-0.810387 h 10.21325 l -0.0268,27.33154 c -0.0402,31.44232 -0.0134,38.131548 0.17424,40.592124 0.20105,2.681587 0.61655,4.58227 0.99184,4.5528 0.25466,-0.01474 0.58974,-1.001907 0.79078,-2.2985 0.45572,-2.828924 0.52273,-6.261941 0.42891,-21.62949 -0.0402,-8.221563 -0.0804,-23.058683 -0.0804,-32.974654 V 23.324311 l -1.43415,-0.01474 c -0.80419,-0.01473 -1.32692,-0.05894 -1.17948,-0.0884 0.14744,-0.0442 0.30828,-0.147338 0.34849,-0.221008 0.0536,-0.08841 0.67015,-0.191541 1.39393,-0.235746 l 1.28671,-0.07367 -0.067,4.037113 c -0.0536,2.224832 -0.12063,5.73152 -0.16084,7.809012 -0.0536,3.285678 -0.0402,3.786633 0.13403,3.963441 0.18765,0.162074 0.21445,-0.0442 0.24126,-2.003822 0.0268,-1.208186 0.0268,-3.359348 0.0134,-4.773811 -0.0134,-2.431107 -0.0134,-2.490043 0.0938,-1.031378 0.067,0.854571 0.067,5.186362 0.0134,9.650759 -0.067,4.449663 -0.0938,9.164538 -0.067,10.461128 0.0536,3.020467 -0.0536,2.534246 -0.20105,-0.884039 -0.0804,-1.885949 -0.10722,0.324148 -0.0938,7.588002 0,5.628381 0.0402,9.444482 0.0804,8.47204 0.067,-1.384994 0.0804,-1.532334 0.10723,-0.707229 0.0134,0.692495 0.0804,1.075577 0.17424,1.075577 0.12063,0 0.13403,0.456753 0.0536,1.723876 -0.067,0.957711 -0.10722,4.096051 -0.10722,6.969175 l 0.0134,5.230564 -0.10723,-4.714875 c -0.067,-2.593178 -0.14743,-4.980083 -0.18764,-5.304234 -0.0268,-0.324148 -0.0268,1.66494 0,4.420197 0.0268,2.755254 0.067,6.365082 0.067,8.030022 0.0134,1.709141 0.067,2.799454 0.12063,2.504777 0.0536,-0.279947 0.12063,2.902593 0.14744,7.07231 0.0268,4.169717 0.0536,7.823748 0.067,8.103688 0.0134,0.27995 0.0402,1.3408 0.067,2.35744 l 0.0402,1.84175 0.0804,-1.84175 c 0.0402,-1.01664 0.0938,-1.59127 0.10722,-1.28185 0.0134,0.33888 0.0804,0.53042 0.16085,0.47148 0.0804,-0.0589 0.13402,-0.85457 0.13402,-1.930148 0,-1.237658 0.0536,-1.827016 0.14744,-1.827016 0.10723,0 0.13403,0.456753 0.10723,1.429198 -0.0536,2.033286 0,4.538066 0.0938,4.420196 0.12063,-0.11787 0.0804,-6.203007 -0.0402,-7.543801 -0.0804,-0.898775 -0.10723,-0.972441 -0.18765,-0.515688 -0.0536,0.309412 -0.0938,-0.162076 -0.10722,-1.178722 0,-0.928241 0.0402,-1.915418 0.10722,-2.165894 0.16084,-0.604094 0.20105,-11.197828 0.0402,-12.862768 -0.10722,-1.252389 -0.10722,-1.237654 -0.22785,1.473399 l -0.12063,2.725787 -0.0938,-1.473399 c -0.14743,-2.357436 -0.25466,-11.669315 -0.13403,-11.271498 0.0536,0.206277 0.14744,-4.508599 0.20105,-10.534797 0.0536,-5.996732 0.12062,-11.669316 0.14743,-12.597557 0.22785,-6.203007 0.30827,-13.820477 0.17424,-16.796741 -0.12063,-3.094136 -0.0938,-6.158805 0.10723,-8.634114 0.067,-1.001912 0.067,-1.060847 -0.24126,-1.134517 -0.17424,-0.05894 -0.48251,-0.0884 -0.71037,-0.07367 -0.21445,0.01474 -1.46095,0.07367 -2.74766,0.117875 z m -29.78194,1.429195 c -0.13403,0.02949 -0.34848,0.02949 -0.46911,0 -0.13403,-0.0442 -0.0268,-0.07367 0.22786,-0.07367 0.25465,0 0.36188,0.02949 0.24125,0.07367 z m -45.54411,0.338882 c -1.68881,0.14734 -4.10139,0.14734 -3.14976,0 0.37529,-0.05894 1.51456,-0.103138 2.54661,-0.103138 1.86305,0 1.86305,0 0.60315,0.103138 z m 56.40071,-0.0442 c -0.28147,0.02947 -0.73717,0.02947 -1.00524,0 -0.28147,-0.02947 -0.0536,-0.05894 0.49591,-0.05894 0.54954,0 0.7774,0.02947 0.50933,0.05894 z m -123.71164,0.29468 c -0.20105,0.02947 -0.56294,0.02947 -0.8042,0 -0.24126,-0.02947 -0.0804,-0.05894 0.36189,-0.05894 0.44231,0 0.64335,0.02947 0.44231,0.05894 z m 3.21676,0 c -0.28146,0.02947 -0.73717,0.02947 -1.00523,0 -0.28147,-0.02947 -0.0536,-0.05894 0.49591,-0.05894 0.54954,0 0.77739,0.02947 0.50932,0.05894 z m -12.43817,1.29659 v 0.957709 h -0.76399 -0.75058 l 0.0804,17.341899 c 0.0536,9.547621 0.0938,26.874787 0.0938,38.514633 v 21.157998 l 13.04133,0.10314 c 34.74112,0.26521 57.51318,0.91351 65.56851,1.87121 2.03729,0.23575 13.51044,0.30942 28.14675,0.17681 13.67128,-0.13261 13.95275,-0.13261 14.31464,0.14734 0.53612,0.39782 1.32691,0.39782 1.80943,0 0.34847,-0.27995 0.56293,-0.32415 1.6888,-0.30941 h 1.28671 v 0.60409 0.58936 l -2.97551,-0.11787 c -1.6486,-0.0589 -3.13635,-0.0884 -3.324,-0.0737 -0.42891,0.0442 -0.77738,0.0442 -1.27331,0.0147 -0.21445,-0.0295 -0.79078,0.0295 -1.2733,0.13261 -0.65676,0.11787 -1.70222,0.13261 -4.19521,0 -1.83623,-0.0884 -4.22201,-0.11788 -5.29427,-0.0589 -2.07749,0.10314 -2.57341,-0.0884 -0.65676,-0.25048 0.72377,-0.0737 0.52273,-0.0737 -0.57633,-0.0294 -2.19813,0.0737 -5.88401,0.0589 -6.2459,-0.0442 -0.17425,-0.0442 -0.37529,0.0295 -0.52272,0.19154 -0.21446,0.23575 -0.52273,0.26522 -2.53321,0.29469 -1.2599,0.0147 -3.91374,0.0737 -5.91082,0.1326 -2.5064,0.0589 -4.08798,0.0295 -5.16023,-0.10313 -0.84441,-0.10314 -1.6352,-0.16208 -1.74242,-0.16208 -0.8042,0.10314 -4.65092,0.26521 -4.73134,0.20628 -0.067,-0.0295 -1.84964,-0.10314 -3.95394,-0.14734 -4.91898,-0.0884 -4.70453,-0.0884 -6.19229,0.0147 -0.91142,0.0589 -1.07226,0.0589 -0.56293,-0.0295 0.38869,-0.0737 0.75057,-0.1768 0.80419,-0.23574 0.13403,-0.1326 -5.16024,0.0147 -6.47375,0.19154 -0.58974,0.0884 -2.43939,0.10314 -4.11479,0.0589 -2.88169,-0.0737 -3.02913,-0.0884 -2.78787,-0.32415 0.25466,-0.23574 0.20105,-0.25048 -1.04545,-0.33888 -0.71037,-0.0589 -1.95687,-0.10314 -2.77446,-0.11787 -0.95163,0 -1.38053,-0.0442 -1.20629,-0.13261 0.16084,-0.0737 -0.91142,-0.1326 -2.69405,-0.1326 -3.3642,-0.0147 -6.00464,0.11787 -5.61594,0.29467 0.30827,0.11788 -7.0769,0.0148 -7.97491,-0.11787 -0.75059,-0.11787 -1.68881,-0.0737 -4.155,0.17681 -1.82284,0.17681 -5.28087,0.17681 -6.6882,-0.0147 -0.44231,-0.0589 -0.54953,-0.11787 -0.4021,-0.23575 0.13403,-0.10313 0.0268,-0.11787 -0.34848,-0.0589 -0.29487,0.0442 -0.831,0.0884 -1.20629,0.0884 -0.48252,0 -0.61655,0.0442 -0.46911,0.14734 0.17424,0.13261 0.17424,0.14734 0,0.17681 -0.10723,0.0147 0.22785,0.0737 0.73717,0.11787 0.52273,0.0589 -0.13403,0.0884 -1.47435,0.0442 -1.32692,-0.0295 -3.49824,-0.0442 -4.82516,-0.0589 -1.42074,0 -2.25174,-0.0442 -2.01048,-0.11787 0.34849,-0.10314 0.28147,-0.13261 -0.46911,-0.20628 -0.48252,-0.0442 -1.09906,-0.13261 -1.38053,-0.17681 -0.28147,-0.0589 -1.21969,-0.0442 -2.0775,0.0148 l -1.56818,0.1326 1.34033,0.0884 1.34032,0.0737 -1.47436,0.0442 c -0.80419,0.0294 -1.35372,0.0884 -1.21969,0.11787 0.18765,0.0589 0.20105,0.10314 0.0804,0.19154 -0.0804,0.0589 1.21969,0.0884 2.8951,0.0737 2.60022,-0.0295 2.80126,-0.0295 1.32691,0.0737 -4.79835,0.30941 -4.95919,0.32415 -4.75814,0.16207 0.14744,-0.11787 0,-0.16207 -0.60314,-0.16207 -0.56294,0 -0.75058,0.0442 -0.60315,0.14734 0.13403,0.0884 -1.13927,0.11787 -3.61886,0.10314 l -3.81992,-0.059 -0.10722,-2.63738 c -0.067,-1.44393 -0.13404,-7.735343 -0.13404,-13.953083 -0.0134,-6.232475 -0.067,-11.168358 -0.12063,-10.976816 -0.0938,0.353612 -0.0134,-21.143268 0.0804,-24.561553 0.0402,-1.060847 0.0938,-3.049935 0.13403,-4.420195 0.0402,-1.384994 0.0938,-3.0352 0.0938,-3.683495 0.0268,-1.016645 0.0402,-1.090315 0.12063,-0.515689 0.14743,1.105048 0.0402,-9.562356 -0.10723,-10.829479 -0.25466,-2.092225 -0.4155,-5.097958 -0.4289,-7.853213 V 23.91367 h 1.20629 1.20629 z m 12.58561,0.530423 7.72025,0.02947 -9.36884,0.206276 c -5.14684,0.117872 -9.38225,0.176808 -9.42246,0.132606 -0.0402,-0.0442 -0.0402,-0.191542 0.0134,-0.324148 0.0804,-0.221009 0.25466,-0.235743 1.71561,-0.162073 0.89802,0.05893 5.09322,0.117871 9.34204,0.117871 z m 118.96691,73.183697 c 0.67016,0.250477 2.23833,0.972441 3.48483,1.620739 1.25991,0.63356 2.58683,1.28185 2.94872,1.44393 l 0.67015,0.27995 -0.64335,0.0442 c -0.52273,0.0442 -0.73718,-0.0295 -1.07226,-0.30942 -1.88985,-1.57654 -5.10662,-2.180624 -10.14623,-1.871212 -1.51455,0.08841 -2.82807,0.191542 -2.90849,0.221012 -0.0938,0.0294 -0.17424,0.0147 -0.17424,-0.04421 0,-0.07367 0.28147,-0.206276 0.64335,-0.294677 0.34848,-0.103141 1.23309,-0.515693 1.97027,-0.913511 l 1.34032,-0.736695 1.34032,0.05894 c 1.05886,0.02944 1.59498,0.132606 2.54661,0.500954 z m -1.83624,2.077489 c 1.2331,0.27995 3.02912,0.88404 2.9487,0.97244 -0.0938,0.11787 -6.80882,-0.51568 -7.81406,-0.72196 -0.58975,-0.13261 -1.27331,-0.22101 -1.52797,-0.23574 -0.62995,0 -0.46911,-0.11788 0.4021,-0.27995 1.13927,-0.22101 4.54368,-0.0737 5.99123,0.26521 z m -5.40149,0.30941 0.4021,0.11788 h -0.4021 c -0.21446,0 -0.67016,-0.0442 -1.00524,-0.10314 l -0.60314,-0.11787 0.60314,-0.0148 c 0.33508,0 0.79078,0.0589 1.00524,0.11788 z m 23.58965,3.47723 c 0.34848,0.50095 0.73718,1.38499 0.73718,1.67967 0,0.22101 -1.2197,0.16207 -1.60839,-0.0737 -0.48251,-0.30941 -1.16608,-0.26521 -1.62179,0.0884 -0.36189,0.27995 -0.53613,0.29468 -3.63227,0.25048 l -3.24358,-0.0442 -0.0402,-0.97244 -0.0402,-0.97245 1.90327,-0.10313 c 2.77446,-0.13261 6.7284,-0.41256 6.78201,-0.45676 0.12063,-0.11787 0.44231,0.13261 0.76399,0.6041 z m -11.59378,0.44201 c 0.0804,0.20628 0.13403,0.47149 0.13403,0.58936 0,0.30942 -0.4155,0.44202 -0.58974,0.19154 -0.22785,-0.33888 -0.79079,-0.72196 -1.04544,-0.72196 -0.13405,0 -0.46912,0.23575 -0.76399,0.51569 -0.33509,0.33888 -0.64335,0.51569 -0.91142,0.51569 -0.32168,0 -0.42891,-0.10314 -0.68356,-0.6483 l -0.28147,-0.66303 0.29487,-0.0589 c 0.16083,-0.0294 1.05886,-0.0737 2.01048,-0.0884 l 1.70221,-0.0148 z m -9.27502,0.16208 c -0.0402,0.35361 -0.10722,0.41255 -0.50932,0.45675 l -0.46911,0.0589 0.38869,-0.45675 c 0.49592,-0.5599 0.64336,-0.57463 0.58974,-0.0589 z m 3.14975,0.14734 0.25466,0.48622 -0.79079,-0.0147 c -0.49591,0 -0.68356,-0.0442 -0.52273,-0.11787 0.25467,-0.10314 0.25467,-0.11788 -0.0134,-0.19155 -0.14743,-0.0442 -0.30828,-0.22101 -0.34848,-0.39781 -0.067,-0.30942 -0.0268,-0.32415 0.54953,-0.27995 0.53613,0.0442 0.64336,0.10314 0.87121,0.51569 z m -77.13548,0.44202 c -0.20105,0.0294 -0.56294,0.0294 -0.80419,0 -0.24126,-0.0295 -0.0804,-0.0589 0.36188,-0.0589 0.44231,0 0.64336,0.0294 0.44231,0.0589 z m -46.92465,0.42728 c -0.0402,0.0442 -0.16083,0.0589 -0.25466,0.0148 -0.10722,-0.0442 -0.067,-0.0884 0.0804,-0.0884 0.14744,-0.0147 0.22786,0.0295 0.17424,0.0737 z m 129.82351,0.30942 c -0.0938,0.0294 -0.25465,0.0294 -0.33507,0 -0.0938,-0.0442 -0.0268,-0.0737 0.16084,-0.0737 0.18763,0 0.25465,0.0294 0.17423,0.0737 z m 12.39797,1.25239 c -0.29487,0.50095 -0.8444,0.75143 -1.17948,0.55988 -0.29486,-0.1768 -0.36188,-0.51568 -0.13403,-0.66303 0.0804,-0.0589 0.22785,-0.0295 0.32168,0.0589 0.13403,0.11788 0.22785,0.10314 0.34848,-0.0589 0.0938,-0.11787 0.32168,-0.221 0.49592,-0.221 0.32168,0 0.33508,0.0147 0.14743,0.32415 z m -17.9335,0.94297 c -0.20105,0.25048 -0.81759,0.22101 -0.91141,-0.0589 -0.0268,-0.11787 0.12063,-0.17681 0.50932,-0.17681 0.49592,0 0.54953,0.0295 0.40209,0.23575 z"
       id="path2154" />
  </g>
</svg>
